<svg width="919" height="917" viewBox="0 0 919 917" fill="none" xmlns="http://www.w3.org/2000/svg">
<g clip-path="url(#clip0_51_6600)">
<rect width="919" height="917" rx="30" fill="#15123E"/>
<g filter="url(#filter0_f_51_6600)">
<rect x="-254" y="223" width="657.9" height="1006.94" rx="328.95" fill="url(#paint0_linear_51_6600)"/>
</g>
<g clip-path="url(#clip1_51_6600)">
<path d="M712.012 175.361H735.012V103.061L576.988 103.061V175.361H599.988C599.988 160.55 605.89 146.346 616.394 135.874C626.898 125.401 641.145 119.517 656 119.517C670.855 119.517 685.102 125.401 695.606 135.874C706.11 146.346 712.012 160.55 712.012 175.361Z" fill="white" fill-opacity="0.3"/>
<path d="M712.012 175.361H599.988C599.988 190.172 605.89 204.376 616.394 214.849C626.898 225.321 641.145 231.204 656 231.204C670.855 231.204 685.102 225.321 695.606 214.849C706.11 204.376 712.012 190.172 712.012 175.361Z" fill="white" fill-opacity="0.3"/>
<path d="M697.941 271.779V287.965H619.741V271.779H697.941Z" fill="white" fill-opacity="0.3"/>
<path d="M646.529 297.03C652.155 297.03 657.655 298.695 662.331 301.815C667.006 304.935 670.648 309.368 672.794 314.554C674.939 319.74 675.492 325.443 674.383 330.942C673.273 336.441 670.551 341.488 666.561 345.443C662.571 349.398 657.494 352.084 651.972 353.158C646.45 354.233 640.732 353.649 635.543 351.48C630.355 349.311 625.929 345.655 622.827 340.976C619.724 336.296 618.086 330.804 618.118 325.195C618.088 321.474 618.804 317.785 620.224 314.345C621.644 310.904 623.738 307.78 626.384 305.157C629.03 302.533 632.176 300.464 635.635 299.068C639.094 297.672 642.798 296.98 646.529 297.03ZM646.529 337.604C648.955 337.541 651.308 336.765 653.293 335.375C655.28 333.985 656.811 332.043 657.695 329.79C658.579 327.537 658.778 325.075 658.265 322.71C657.753 320.346 656.553 318.184 654.815 316.496C653.078 314.808 650.879 313.668 648.495 313.219C646.11 312.77 643.646 313.031 641.411 313.971C639.175 314.911 637.266 316.487 635.925 318.503C634.583 320.518 633.867 322.883 633.866 325.302C633.833 326.95 634.142 328.586 634.773 330.108C635.404 331.631 636.343 333.007 637.531 334.152C638.72 335.296 640.133 336.184 641.68 336.759C643.229 337.335 644.879 337.586 646.529 337.496V337.604Z" fill="white" fill-opacity="0.3"/>
<path d="M673.317 417.404H622.393C604.426 417.404 596.795 403.376 596.795 389.185C596.383 384.18 597.381 379.159 599.675 374.689C601.97 370.219 605.471 366.475 609.783 363.88L617.684 377.531C615.447 378.637 613.602 380.397 612.393 382.575C611.185 384.754 610.671 387.248 610.92 389.725C610.725 391.303 610.882 392.905 611.38 394.415C611.878 395.925 612.705 397.307 613.801 398.462C614.897 399.617 616.236 400.516 617.721 401.095C619.206 401.674 620.802 401.918 622.393 401.811H627.317C625.027 399.927 623.208 397.537 622.006 394.831C620.803 392.124 620.25 389.175 620.39 386.218C620.39 379.063 623.241 372.201 628.316 367.142C633.39 362.083 640.273 359.24 647.449 359.24C654.626 359.24 661.508 362.083 666.582 367.142C671.657 372.201 674.508 379.063 674.508 386.218C674.648 389.175 674.095 392.124 672.893 394.831C671.69 397.537 669.872 399.927 667.581 401.811H672.993L673.317 417.404ZM647.612 401.811C650.201 401.918 652.763 401.251 654.969 399.895C657.175 398.54 658.923 396.557 659.99 394.202C661.057 391.848 661.392 389.229 660.954 386.682C660.515 384.136 659.323 381.778 657.53 379.913C655.737 378.048 653.425 376.76 650.892 376.215C648.359 375.67 645.721 375.893 643.316 376.855C640.911 377.818 638.849 379.475 637.397 381.614C635.944 383.754 635.167 386.278 635.164 388.862C635.043 390.548 635.277 392.24 635.852 393.83C636.427 395.42 637.33 396.872 638.504 398.092C639.676 399.313 641.093 400.274 642.662 400.915C644.231 401.555 645.917 401.861 647.612 401.811Z" fill="white" fill-opacity="0.3"/>
<path d="M646.53 426.522C652.151 426.522 657.646 428.185 662.32 431.3C666.994 434.415 670.635 438.842 672.784 444.021C674.933 449.2 675.492 454.899 674.391 460.395C673.291 465.891 670.579 470.938 666.601 474.898C662.621 478.857 657.554 481.551 652.039 482.637C646.524 483.725 640.81 483.156 635.619 481.004C630.428 478.851 625.995 475.212 622.88 470.547C619.764 465.882 618.107 460.4 618.118 454.795C618.082 451.068 618.792 447.37 620.208 443.92C621.624 440.47 623.716 437.337 626.362 434.704C629.008 432.07 632.155 429.99 635.618 428.585C639.081 427.181 642.791 426.479 646.53 426.522ZM646.53 467.097C648.957 467.033 651.312 466.256 653.3 464.864C655.286 463.472 656.817 461.526 657.7 459.27C658.583 457.014 658.778 454.549 658.261 452.183C657.745 449.817 656.539 447.656 654.796 445.969C653.053 444.283 650.849 443.148 648.462 442.705C646.074 442.262 643.608 442.531 641.374 443.479C639.139 444.427 637.234 446.012 635.899 448.035C634.564 450.057 633.856 452.427 633.866 454.849C633.834 456.496 634.143 458.132 634.774 459.655C635.404 461.177 636.343 462.554 637.531 463.698C638.72 464.842 640.133 465.73 641.681 466.306C643.229 466.881 644.879 467.132 646.53 467.043V467.097Z" fill="white" fill-opacity="0.3"/>
<path d="M687.659 490.567C689.564 490.567 691.427 491.131 693.011 492.186C694.595 493.241 695.83 494.741 696.559 496.496C697.288 498.251 697.479 500.182 697.107 502.045C696.735 503.908 695.818 505.619 694.471 506.963C693.123 508.306 691.407 509.22 689.539 509.591C687.67 509.962 685.733 509.771 683.973 509.044C682.213 508.318 680.708 507.086 679.65 505.507C678.591 503.928 678.026 502.071 678.026 500.171C678.054 497.633 679.078 495.206 680.879 493.411C682.679 491.616 685.113 490.595 687.659 490.567ZM673.318 492.132V508.319H619.741V492.132H673.318Z" fill="white" fill-opacity="0.3"/>
<path d="M646.529 577.597C642.966 577.778 639.402 577.256 636.042 576.058C632.683 574.862 629.594 573.014 626.953 570.622C624.312 568.229 622.173 565.341 620.656 562.121C619.14 558.901 618.277 555.414 618.118 551.86C617.916 548.845 618.401 545.823 619.534 543.02C620.669 540.217 622.423 537.706 624.666 535.674H598.202V519.487H673.318V535.674H668.285C670.521 537.709 672.267 540.222 673.392 543.025C674.517 545.828 674.991 548.849 674.779 551.86C674.619 555.4 673.761 558.873 672.255 562.082C670.749 565.29 668.623 568.172 666 570.562C663.377 572.952 660.308 574.803 656.967 576.01C653.626 577.217 650.08 577.757 646.529 577.597ZM646.529 561.41C649.043 561.347 651.482 560.545 653.54 559.105C655.598 557.665 657.185 555.652 658.1 553.317C659.015 550.983 659.219 548.43 658.686 545.98C658.153 543.531 656.906 541.293 655.102 539.546C653.298 537.8 651.018 536.623 648.546 536.164C646.074 535.704 643.522 535.982 641.207 536.963C638.894 537.944 636.922 539.583 635.539 541.677C634.155 543.77 633.423 546.224 633.433 548.731C633.36 550.448 633.652 552.161 634.289 553.757C634.927 555.355 635.895 556.799 637.132 557.996C638.368 559.193 639.845 560.116 641.465 560.705C643.084 561.293 644.81 561.534 646.529 561.41Z" fill="white" fill-opacity="0.3"/>
<path d="M635.814 626.858C623.475 626.858 618.226 616.067 618.226 604.628C617.805 599.963 618.797 595.279 621.073 591.182C623.35 587.084 626.807 583.762 630.998 581.644L638.899 595.564C636.968 596.115 635.285 597.311 634.133 598.951C632.98 600.592 632.427 602.577 632.567 604.575C632.567 608.405 633.758 610.348 635.922 610.348C641.821 610.348 638.682 584.072 657.245 584.072C668.934 584.072 674.779 593.891 674.779 605.006C674.969 609.231 674.007 613.429 671.997 617.152C669.986 620.876 667.001 623.988 663.36 626.157L656 612.236C657.396 611.621 658.583 610.616 659.419 609.343C660.255 608.069 660.702 606.582 660.708 605.06C660.708 602.254 659.626 600.582 657.732 600.582C651.562 600.582 655.621 626.858 635.814 626.858Z" fill="white" fill-opacity="0.3"/>
<path d="M673.318 685.507H619.741V669.321H624.774C622.546 667.481 620.784 665.145 619.627 662.506C618.471 659.862 617.954 656.986 618.118 654.105C618.118 643.314 625.857 634.088 640.306 634.088H673.318V650.274H642.741C641.463 650.145 640.172 650.296 638.958 650.717C637.744 651.138 636.636 651.812 635.709 652.697C634.783 653.587 634.061 654.666 633.593 655.859C633.126 657.051 632.923 658.33 633 659.609C633 665.436 636.464 669.536 643.824 669.536H673.318V685.507Z" fill="white" fill-opacity="0.3"/>
<path d="M652.645 777.231H619.741V761.045H651.238C656.649 761.045 660.005 758.509 660.005 753.383C660.005 748.257 656.271 745.02 649.939 745.02H619.741V728.833H651.238C656.649 728.833 660.005 726.297 660.005 721.172C660.005 716.046 656.271 712.809 649.939 712.809H619.741V696.622H673.318V712.809H668.393C670.569 714.487 672.292 716.672 673.406 719.181C674.521 721.684 674.993 724.431 674.779 727.161C674.922 729.896 674.349 732.626 673.115 735.076C671.882 737.526 670.031 739.614 667.744 741.135C670.133 742.916 672.032 745.268 673.262 747.977C674.493 750.68 675.014 753.658 674.779 756.62C674.779 769.246 666.012 777.231 652.645 777.231Z" fill="white" fill-opacity="0.3"/>
<path d="M673.642 790.828C673.642 797.384 678.973 802.698 685.548 802.698C692.124 802.698 697.454 797.384 697.454 790.828C697.454 784.273 692.124 778.958 685.548 778.958C678.973 778.958 673.642 784.273 673.642 790.828Z" fill="white" fill-opacity="0.3"/>
</g>
</g>
<defs>
<filter id="filter0_f_51_6600" x="-1154" y="-677" width="2457.9" height="2806.94" filterUnits="userSpaceOnUse" color-interpolation-filters="sRGB">
<feFlood flood-opacity="0" result="BackgroundImageFix"/>
<feBlend mode="normal" in="SourceGraphic" in2="BackgroundImageFix" result="shape"/>
<feGaussianBlur stdDeviation="450" result="effect1_foregroundBlur_51_6600"/>
</filter>
<linearGradient id="paint0_linear_51_6600" x1="77.2185" y1="56.0602" x2="173.027" y2="1349.94" gradientUnits="userSpaceOnUse">
<stop stop-color="#423EE0"/>
<stop offset="1" stop-color="#812DE2"/>
</linearGradient>
<clipPath id="clip0_51_6600">
<rect width="919" height="917" rx="30" fill="white"/>
</clipPath>
<clipPath id="clip1_51_6600">
<rect width="723" height="184" fill="white" transform="translate(748 92) rotate(90)"/>
</clipPath>
</defs>
</svg>
