<svg width="686" height="227" viewBox="0 0 686 227" fill="none" xmlns="http://www.w3.org/2000/svg">
<rect x="243" y="1" width="200" height="170" rx="29" fill="#1C1A50" stroke="url(#paint0_linear_6_3)" stroke-width="2"/>
<rect x="485" y="1" width="200" height="170" rx="29" fill="#1C1A50" stroke="url(#paint1_linear_6_3)" stroke-width="2"/>
<rect x="1" y="1" width="200" height="170" rx="29" fill="#1C1A50" stroke="url(#paint2_linear_6_3)" stroke-width="2"/>
<path d="M127.25 74.3333H124.333V30.5833C124.333 29.8097 124.026 29.0678 123.479 28.5209C122.932 27.9739 122.19 27.6666 121.417 27.6666C120.643 27.6666 119.901 27.9739 119.354 28.5209C118.807 29.0678 118.5 29.8097 118.5 30.5833V74.3333H112.667V42.2499C112.667 41.4764 112.36 40.7345 111.813 40.1875C111.266 39.6405 110.524 39.3333 109.75 39.3333C108.977 39.3333 108.235 39.6405 107.688 40.1875C107.141 40.7345 106.833 41.4764 106.833 42.2499V74.3333H101V53.9166C101 53.143 100.693 52.4012 100.146 51.8542C99.5989 51.3072 98.857 50.9999 98.0835 50.9999C97.3099 50.9999 96.5681 51.3072 96.0211 51.8542C95.4741 52.4012 95.1668 53.143 95.1668 53.9166V74.3333H89.3335V65.5833C89.3335 64.8097 89.0262 64.0678 88.4792 63.5209C87.9322 62.9739 87.1904 62.6666 86.4168 62.6666C85.6433 62.6666 84.9014 62.9739 84.3544 63.5209C83.8075 64.0678 83.5002 64.8097 83.5002 65.5833V74.3333H77.6668V24.7499C77.6668 23.9764 77.3595 23.2345 76.8126 22.6875C76.2656 22.1405 75.5237 21.8333 74.7502 21.8333C73.9766 21.8333 73.2347 22.1405 72.6878 22.6875C72.1408 23.2345 71.8335 23.9764 71.8335 24.7499V77.2499C71.8335 78.0235 72.1408 78.7653 72.6878 79.3123C73.2347 79.8593 73.9766 80.1666 74.7502 80.1666H127.25C128.024 80.1666 128.766 79.8593 129.313 79.3123C129.86 78.7653 130.167 78.0235 130.167 77.2499C130.167 76.4764 129.86 75.7345 129.313 75.1875C128.766 74.6405 128.024 74.3333 127.25 74.3333Z" fill="#F8F8F8"/>
<path d="M371.933 35.3083C371.637 34.5956 371.071 34.0293 370.358 33.7333C370.008 33.5839 369.631 33.5046 369.25 33.5H354.667C353.893 33.5 353.151 33.8073 352.604 34.3543C352.057 34.9013 351.75 35.6431 351.75 36.4167C351.75 37.1902 352.057 37.9321 352.604 38.4791C353.151 39.026 353.893 39.3333 354.667 39.3333H362.221L345.917 55.6375L336.321 46.0125C336.05 45.7391 335.727 45.5221 335.372 45.3741C335.016 45.226 334.635 45.1498 334.25 45.1498C333.865 45.1498 333.484 45.226 333.128 45.3741C332.773 45.5221 332.45 45.7391 332.179 46.0125L314.679 63.5125C314.406 63.7836 314.189 64.1062 314.041 64.4617C313.893 64.8171 313.816 65.1983 313.816 65.5833C313.816 65.9684 313.893 66.3496 314.041 66.705C314.189 67.0604 314.406 67.383 314.679 67.6542C314.95 67.9275 315.273 68.1445 315.628 68.2926C315.984 68.4407 316.365 68.5169 316.75 68.5169C317.135 68.5169 317.516 68.4407 317.872 68.2926C318.227 68.1445 318.55 67.9275 318.821 67.6542L334.25 52.1958L343.846 61.8208C344.117 62.0942 344.44 62.3112 344.795 62.4593C345.15 62.6073 345.532 62.6836 345.917 62.6836C346.302 62.6836 346.683 62.6073 347.038 62.4593C347.394 62.3112 347.716 62.0942 347.987 61.8208L366.333 43.4458V51C366.333 51.7736 366.641 52.5154 367.188 53.0624C367.735 53.6094 368.476 53.9167 369.25 53.9167C370.024 53.9167 370.765 53.6094 371.312 53.0624C371.859 52.5154 372.167 51.7736 372.167 51V36.4167C372.162 36.0355 372.083 35.659 371.933 35.3083V35.3083Z" fill="#F8F8F8"/>
<path d="M574.5 47.5C574.5 45.6435 575.237 43.863 576.55 42.5503C577.863 41.2375 579.643 40.5 581.5 40.5C583.357 40.5 585.137 41.2375 586.45 42.5503C587.763 43.863 588.5 45.6435 588.5 47.5C588.5 49.3565 587.763 51.137 586.45 52.4497C585.137 53.7625 583.357 54.5 581.5 54.5C579.643 54.5 577.863 53.7625 576.55 52.4497C575.237 51.137 574.5 49.3565 574.5 47.5ZM581.5 44C580.572 44 579.682 44.3687 579.025 45.0251C578.369 45.6815 578 46.5717 578 47.5C578 48.4283 578.369 49.3185 579.025 49.9749C579.682 50.6313 580.572 51 581.5 51C582.428 51 583.318 50.6313 583.975 49.9749C584.631 49.3185 585 48.4283 585 47.5C585 46.5717 584.631 45.6815 583.975 45.0251C583.318 44.3687 582.428 44 581.5 44ZM562.25 30C560.858 30 559.522 30.5531 558.538 31.5377C557.553 32.5223 557 33.8576 557 35.25V59.75C557 61.1424 557.553 62.4777 558.538 63.4623C559.522 64.4469 560.858 65 562.25 65H600.75C602.142 65 603.478 64.4469 604.462 63.4623C605.447 62.4777 606 61.1424 606 59.75V35.25C606 33.8576 605.447 32.5223 604.462 31.5377C603.478 30.5531 602.142 30 600.75 30H562.25ZM560.5 35.25C560.5 34.7859 560.684 34.3408 561.013 34.0126C561.341 33.6844 561.786 33.5 562.25 33.5H567.5V37C567.5 37.9283 567.131 38.8185 566.475 39.4749C565.818 40.1313 564.928 40.5 564 40.5H560.5V35.25ZM560.5 44H564C565.857 44 567.637 43.2625 568.95 41.9497C570.263 40.637 571 38.8565 571 37V33.5H592V37C592 38.8565 592.737 40.637 594.05 41.9497C595.363 43.2625 597.143 44 599 44H602.5V51H599C597.143 51 595.363 51.7375 594.05 53.0503C592.737 54.363 592 56.1435 592 58V61.5H571V58C571 56.1435 570.263 54.363 568.95 53.0503C567.637 51.7375 565.857 51 564 51H560.5V44ZM595.5 33.5H600.75C601.214 33.5 601.659 33.6844 601.987 34.0126C602.316 34.3408 602.5 34.7859 602.5 35.25V40.5H599C598.072 40.5 597.182 40.1313 596.525 39.4749C595.869 38.8185 595.5 37.9283 595.5 37V33.5ZM602.5 54.5V59.75C602.5 60.2141 602.316 60.6592 601.987 60.9874C601.659 61.3156 601.214 61.5 600.75 61.5H595.5V58C595.5 57.0717 595.869 56.1815 596.525 55.5251C597.182 54.8687 598.072 54.5 599 54.5H602.5ZM567.5 61.5H562.25C561.786 61.5 561.341 61.3156 561.013 60.9874C560.684 60.6592 560.5 60.2141 560.5 59.75V54.5H564C564.928 54.5 565.818 54.8687 566.475 55.5251C567.131 56.1815 567.5 57.0717 567.5 58V61.5ZM609.5 59.75C609.5 62.0706 608.578 64.2962 606.937 65.9372C605.296 67.5781 603.071 68.5 600.75 68.5H564.298C564.66 69.524 565.33 70.4105 566.217 71.0374C567.104 71.6643 568.164 72.0006 569.25 72H600.75C603.999 72 607.115 70.7094 609.412 68.4121C611.709 66.1147 613 62.9989 613 59.75V42.25C613.001 41.1639 612.664 40.1043 612.037 39.2173C611.411 38.3303 610.524 37.6595 609.5 37.2975V59.75Z" fill="#F8F8F8"/>
<path d="M62.868 132.876H56.466L55.366 136H52.748L58.226 120.688H61.13L66.608 136H63.968L62.868 132.876ZM62.164 130.83L59.678 123.724L57.17 130.83H62.164ZM75.9858 123.68C76.9392 123.68 77.7898 123.878 78.5378 124.274C79.3005 124.67 79.8945 125.257 80.3198 126.034C80.7452 126.811 80.9578 127.75 80.9578 128.85V136H78.4718V129.224C78.4718 128.139 78.2005 127.31 77.6578 126.738C77.1152 126.151 76.3745 125.858 75.4358 125.858C74.4972 125.858 73.7492 126.151 73.1918 126.738C72.6492 127.31 72.3778 128.139 72.3778 129.224V136H69.8698V123.878H72.3778V125.264C72.7885 124.765 73.3092 124.377 73.9398 124.098C74.5852 123.819 75.2672 123.68 75.9858 123.68ZM84.201 129.884C84.201 128.667 84.4503 127.589 84.949 126.65C85.4623 125.711 86.1516 124.985 87.017 124.472C87.897 123.944 88.865 123.68 89.921 123.68C90.8743 123.68 91.703 123.871 92.407 124.252C93.1256 124.619 93.6976 125.081 94.123 125.638V123.878H96.653V136H94.123V134.196C93.6976 134.768 93.1183 135.245 92.385 135.626C91.6516 136.007 90.8156 136.198 89.877 136.198C88.8356 136.198 87.8823 135.934 87.017 135.406C86.1516 134.863 85.4623 134.115 84.949 133.162C84.4503 132.194 84.201 131.101 84.201 129.884ZM94.123 129.928C94.123 129.092 93.947 128.366 93.595 127.75C93.2576 127.134 92.8103 126.665 92.253 126.342C91.6956 126.019 91.0943 125.858 90.449 125.858C89.8036 125.858 89.2023 126.019 88.645 126.342C88.0876 126.65 87.633 127.112 87.281 127.728C86.9436 128.329 86.775 129.048 86.775 129.884C86.775 130.72 86.9436 131.453 87.281 132.084C87.633 132.715 88.0876 133.199 88.645 133.536C89.217 133.859 89.8183 134.02 90.449 134.02C91.0943 134.02 91.6956 133.859 92.253 133.536C92.8103 133.213 93.2576 132.744 93.595 132.128C93.947 131.497 94.123 130.764 94.123 129.928ZM103.335 119.72V136H100.827V119.72H103.335ZM118.42 123.878L110.984 141.698H108.388L110.852 135.802L106.078 123.878H108.872L112.282 133.118L115.824 123.878H118.42ZM125.593 136.198C124.639 136.198 123.781 136.029 123.019 135.692C122.271 135.34 121.677 134.871 121.237 134.284C120.797 133.683 120.562 133.015 120.533 132.282H123.129C123.173 132.795 123.415 133.228 123.855 133.58C124.309 133.917 124.874 134.086 125.549 134.086C126.253 134.086 126.795 133.954 127.177 133.69C127.573 133.411 127.771 133.059 127.771 132.634C127.771 132.179 127.551 131.842 127.111 131.622C126.685 131.402 126.003 131.16 125.065 130.896C124.155 130.647 123.415 130.405 122.843 130.17C122.271 129.935 121.772 129.576 121.347 129.092C120.936 128.608 120.731 127.97 120.731 127.178C120.731 126.533 120.921 125.946 121.303 125.418C121.684 124.875 122.227 124.45 122.931 124.142C123.649 123.834 124.471 123.68 125.395 123.68C126.773 123.68 127.881 124.032 128.717 124.736C129.567 125.425 130.022 126.371 130.081 127.574H127.573C127.529 127.031 127.309 126.599 126.913 126.276C126.517 125.953 125.981 125.792 125.307 125.792C124.647 125.792 124.141 125.917 123.789 126.166C123.437 126.415 123.261 126.745 123.261 127.156C123.261 127.479 123.378 127.75 123.613 127.97C123.847 128.19 124.133 128.366 124.471 128.498C124.808 128.615 125.307 128.769 125.967 128.96C126.847 129.195 127.565 129.437 128.123 129.686C128.695 129.921 129.186 130.273 129.597 130.742C130.007 131.211 130.22 131.835 130.235 132.612C130.235 133.301 130.044 133.917 129.663 134.46C129.281 135.003 128.739 135.428 128.035 135.736C127.345 136.044 126.531 136.198 125.593 136.198ZM135.101 122.272C134.646 122.272 134.265 122.118 133.957 121.81C133.649 121.502 133.495 121.121 133.495 120.666C133.495 120.211 133.649 119.83 133.957 119.522C134.265 119.214 134.646 119.06 135.101 119.06C135.541 119.06 135.915 119.214 136.223 119.522C136.531 119.83 136.685 120.211 136.685 120.666C136.685 121.121 136.531 121.502 136.223 121.81C135.915 122.118 135.541 122.272 135.101 122.272ZM136.333 123.878V136H133.825V123.878H136.333ZM144.905 136.198C143.952 136.198 143.094 136.029 142.331 135.692C141.583 135.34 140.989 134.871 140.549 134.284C140.109 133.683 139.875 133.015 139.845 132.282H142.441C142.485 132.795 142.727 133.228 143.167 133.58C143.622 133.917 144.187 134.086 144.861 134.086C145.565 134.086 146.108 133.954 146.489 133.69C146.885 133.411 147.083 133.059 147.083 132.634C147.083 132.179 146.863 131.842 146.423 131.622C145.998 131.402 145.316 131.16 144.377 130.896C143.468 130.647 142.727 130.405 142.155 130.17C141.583 129.935 141.085 129.576 140.659 129.092C140.249 128.608 140.043 127.97 140.043 127.178C140.043 126.533 140.234 125.946 140.615 125.418C140.997 124.875 141.539 124.45 142.243 124.142C142.962 123.834 143.783 123.68 144.707 123.68C146.086 123.68 147.193 124.032 148.029 124.736C148.88 125.425 149.335 126.371 149.393 127.574H146.885C146.841 127.031 146.621 126.599 146.225 126.276C145.829 125.953 145.294 125.792 144.619 125.792C143.959 125.792 143.453 125.917 143.101 126.166C142.749 126.415 142.573 126.745 142.573 127.156C142.573 127.479 142.691 127.75 142.925 127.97C143.16 128.19 143.446 128.366 143.783 128.498C144.121 128.615 144.619 128.769 145.279 128.96C146.159 129.195 146.878 129.437 147.435 129.686C148.007 129.921 148.499 130.273 148.909 130.742C149.32 131.211 149.533 131.835 149.547 132.612C149.547 133.301 149.357 133.917 148.975 134.46C148.594 135.003 148.051 135.428 147.347 135.736C146.658 136.044 145.844 136.198 144.905 136.198Z" fill="white"/>
<path d="M273.716 125.11C273.32 124.347 272.77 123.775 272.066 123.394C271.362 122.998 270.548 122.8 269.624 122.8C268.612 122.8 267.71 123.027 266.918 123.482C266.126 123.937 265.503 124.582 265.048 125.418C264.608 126.254 264.388 127.222 264.388 128.322C264.388 129.422 264.608 130.397 265.048 131.248C265.503 132.084 266.126 132.729 266.918 133.184C267.71 133.639 268.612 133.866 269.624 133.866C270.988 133.866 272.095 133.485 272.946 132.722C273.797 131.959 274.317 130.925 274.508 129.62H268.766V127.618H277.192V129.576C277.031 130.764 276.605 131.857 275.916 132.854C275.241 133.851 274.354 134.651 273.254 135.252C272.169 135.839 270.959 136.132 269.624 136.132C268.187 136.132 266.874 135.802 265.686 135.142C264.498 134.467 263.552 133.536 262.848 132.348C262.159 131.16 261.814 129.818 261.814 128.322C261.814 126.826 262.159 125.484 262.848 124.296C263.552 123.108 264.498 122.184 265.686 121.524C266.889 120.849 268.201 120.512 269.624 120.512C271.252 120.512 272.697 120.915 273.958 121.722C275.234 122.514 276.158 123.643 276.73 125.11H273.716ZM283.054 125.638C283.42 125.022 283.904 124.545 284.506 124.208C285.122 123.856 285.848 123.68 286.684 123.68V126.276H286.046C285.063 126.276 284.315 126.525 283.802 127.024C283.303 127.523 283.054 128.388 283.054 129.62V136H280.546V123.878H283.054V125.638ZM295.127 136.198C293.983 136.198 292.949 135.941 292.025 135.428C291.101 134.9 290.375 134.167 289.847 133.228C289.319 132.275 289.055 131.175 289.055 129.928C289.055 128.696 289.326 127.603 289.869 126.65C290.412 125.697 291.152 124.963 292.091 124.45C293.03 123.937 294.078 123.68 295.237 123.68C296.396 123.68 297.444 123.937 298.383 124.45C299.322 124.963 300.062 125.697 300.605 126.65C301.148 127.603 301.419 128.696 301.419 129.928C301.419 131.16 301.14 132.253 300.583 133.206C300.026 134.159 299.263 134.9 298.295 135.428C297.342 135.941 296.286 136.198 295.127 136.198ZM295.127 134.02C295.772 134.02 296.374 133.866 296.931 133.558C297.503 133.25 297.965 132.788 298.317 132.172C298.669 131.556 298.845 130.808 298.845 129.928C298.845 129.048 298.676 128.307 298.339 127.706C298.002 127.09 297.554 126.628 296.997 126.32C296.44 126.012 295.838 125.858 295.193 125.858C294.548 125.858 293.946 126.012 293.389 126.32C292.846 126.628 292.414 127.09 292.091 127.706C291.768 128.307 291.607 129.048 291.607 129.928C291.607 131.233 291.937 132.245 292.597 132.964C293.272 133.668 294.115 134.02 295.127 134.02ZM321.058 123.878L317.296 136H314.656L312.214 127.046L309.772 136H307.132L303.348 123.878H305.9L308.43 133.624L311.004 123.878H313.622L316.086 133.58L318.594 123.878H321.058ZM326.739 125.924V132.634C326.739 133.089 326.841 133.419 327.047 133.624C327.267 133.815 327.633 133.91 328.147 133.91H329.687V136H327.707C326.577 136 325.712 135.736 325.111 135.208C324.509 134.68 324.209 133.822 324.209 132.634V125.924H322.779V123.878H324.209V120.864H326.739V123.878H329.687V125.924H326.739ZM339.148 123.68C340.072 123.68 340.893 123.878 341.612 124.274C342.345 124.67 342.917 125.257 343.328 126.034C343.753 126.811 343.966 127.75 343.966 128.85V136H341.48V129.224C341.48 128.139 341.209 127.31 340.666 126.738C340.123 126.151 339.383 125.858 338.444 125.858C337.505 125.858 336.757 126.151 336.2 126.738C335.657 127.31 335.386 128.139 335.386 129.224V136H332.878V119.72H335.386V125.286C335.811 124.773 336.347 124.377 336.992 124.098C337.652 123.819 338.371 123.68 339.148 123.68ZM365.332 125.264C365.332 126.041 365.149 126.775 364.782 127.464C364.415 128.153 363.829 128.718 363.022 129.158C362.215 129.583 361.181 129.796 359.92 129.796H357.148V136H354.64V120.71H359.92C361.093 120.71 362.083 120.915 362.89 121.326C363.711 121.722 364.32 122.265 364.716 122.954C365.127 123.643 365.332 124.413 365.332 125.264ZM359.92 127.75C360.873 127.75 361.585 127.537 362.054 127.112C362.523 126.672 362.758 126.056 362.758 125.264C362.758 123.592 361.812 122.756 359.92 122.756H357.148V127.75H359.92ZM374.874 123.68C375.798 123.68 376.619 123.878 377.338 124.274C378.071 124.67 378.643 125.257 379.054 126.034C379.479 126.811 379.692 127.75 379.692 128.85V136H377.206V129.224C377.206 128.139 376.935 127.31 376.392 126.738C375.849 126.151 375.109 125.858 374.17 125.858C373.231 125.858 372.483 126.151 371.926 126.738C371.383 127.31 371.112 128.139 371.112 129.224V136H368.604V119.72H371.112V125.286C371.537 124.773 372.073 124.377 372.718 124.098C373.378 123.819 374.097 123.68 374.874 123.68ZM382.935 129.884C382.935 128.667 383.185 127.589 383.683 126.65C384.197 125.711 384.886 124.985 385.751 124.472C386.631 123.944 387.599 123.68 388.655 123.68C389.609 123.68 390.437 123.871 391.141 124.252C391.86 124.619 392.432 125.081 392.857 125.638V123.878H395.387V136H392.857V134.196C392.432 134.768 391.853 135.245 391.119 135.626C390.386 136.007 389.55 136.198 388.611 136.198C387.57 136.198 386.617 135.934 385.751 135.406C384.886 134.863 384.197 134.115 383.683 133.162C383.185 132.194 382.935 131.101 382.935 129.884ZM392.857 129.928C392.857 129.092 392.681 128.366 392.329 127.75C391.992 127.134 391.545 126.665 390.987 126.342C390.43 126.019 389.829 125.858 389.183 125.858C388.538 125.858 387.937 126.019 387.379 126.342C386.822 126.65 386.367 127.112 386.015 127.728C385.678 128.329 385.509 129.048 385.509 129.884C385.509 130.72 385.678 131.453 386.015 132.084C386.367 132.715 386.822 133.199 387.379 133.536C387.951 133.859 388.553 134.02 389.183 134.02C389.829 134.02 390.43 133.859 390.987 133.536C391.545 133.213 391.992 132.744 392.329 132.128C392.681 131.497 392.857 130.764 392.857 129.928ZM403.961 136.198C403.008 136.198 402.15 136.029 401.387 135.692C400.639 135.34 400.045 134.871 399.605 134.284C399.165 133.683 398.931 133.015 398.901 132.282H401.497C401.541 132.795 401.783 133.228 402.223 133.58C402.678 133.917 403.243 134.086 403.917 134.086C404.621 134.086 405.164 133.954 405.545 133.69C405.941 133.411 406.139 133.059 406.139 132.634C406.139 132.179 405.919 131.842 405.479 131.622C405.054 131.402 404.372 131.16 403.433 130.896C402.524 130.647 401.783 130.405 401.211 130.17C400.639 129.935 400.141 129.576 399.715 129.092C399.305 128.608 399.099 127.97 399.099 127.178C399.099 126.533 399.29 125.946 399.671 125.418C400.053 124.875 400.595 124.45 401.299 124.142C402.018 123.834 402.839 123.68 403.763 123.68C405.142 123.68 406.249 124.032 407.085 124.736C407.936 125.425 408.391 126.371 408.449 127.574H405.941C405.897 127.031 405.677 126.599 405.281 126.276C404.885 125.953 404.35 125.792 403.675 125.792C403.015 125.792 402.509 125.917 402.157 126.166C401.805 126.415 401.629 126.745 401.629 127.156C401.629 127.479 401.747 127.75 401.981 127.97C402.216 128.19 402.502 128.366 402.839 128.498C403.177 128.615 403.675 128.769 404.335 128.96C405.215 129.195 405.934 129.437 406.491 129.686C407.063 129.921 407.555 130.273 407.965 130.742C408.376 131.211 408.589 131.835 408.603 132.612C408.603 133.301 408.413 133.917 408.031 134.46C407.65 135.003 407.107 135.428 406.403 135.736C405.714 136.044 404.9 136.198 403.961 136.198ZM423.303 129.642C423.303 130.097 423.274 130.507 423.215 130.874H413.953C414.027 131.842 414.386 132.619 415.031 133.206C415.677 133.793 416.469 134.086 417.407 134.086C418.757 134.086 419.71 133.521 420.267 132.392H422.973C422.607 133.507 421.939 134.423 420.971 135.142C420.018 135.846 418.83 136.198 417.407 136.198C416.249 136.198 415.207 135.941 414.283 135.428C413.374 134.9 412.655 134.167 412.127 133.228C411.614 132.275 411.357 131.175 411.357 129.928C411.357 128.681 411.607 127.589 412.105 126.65C412.619 125.697 413.33 124.963 414.239 124.45C415.163 123.937 416.219 123.68 417.407 123.68C418.551 123.68 419.571 123.929 420.465 124.428C421.36 124.927 422.057 125.631 422.555 126.54C423.054 127.435 423.303 128.469 423.303 129.642ZM420.685 128.85C420.671 127.926 420.341 127.185 419.695 126.628C419.05 126.071 418.251 125.792 417.297 125.792C416.432 125.792 415.691 126.071 415.075 126.628C414.459 127.171 414.093 127.911 413.975 128.85H420.685Z" fill="white"/>
<path d="M566.342 125.264C566.342 126.041 566.159 126.775 565.792 127.464C565.425 128.153 564.839 128.718 564.032 129.158C563.225 129.583 562.191 129.796 560.93 129.796H558.158V136H555.65V120.71H560.93C562.103 120.71 563.093 120.915 563.9 121.326C564.721 121.722 565.33 122.265 565.726 122.954C566.137 123.643 566.342 124.413 566.342 125.264ZM560.93 127.75C561.883 127.75 562.595 127.537 563.064 127.112C563.533 126.672 563.768 126.056 563.768 125.264C563.768 123.592 562.822 122.756 560.93 122.756H558.158V127.75H560.93ZM572.122 125.638C572.489 125.022 572.973 124.545 573.574 124.208C574.19 123.856 574.916 123.68 575.752 123.68V126.276H575.114C574.131 126.276 573.383 126.525 572.87 127.024C572.371 127.523 572.122 128.388 572.122 129.62V136H569.614V123.878H572.122V125.638ZM584.195 136.198C583.051 136.198 582.017 135.941 581.093 135.428C580.169 134.9 579.443 134.167 578.915 133.228C578.387 132.275 578.123 131.175 578.123 129.928C578.123 128.696 578.395 127.603 578.937 126.65C579.48 125.697 580.221 124.963 581.159 124.45C582.098 123.937 583.147 123.68 584.305 123.68C585.464 123.68 586.513 123.937 587.451 124.45C588.39 124.963 589.131 125.697 589.673 126.65C590.216 127.603 590.487 128.696 590.487 129.928C590.487 131.16 590.209 132.253 589.651 133.206C589.094 134.159 588.331 134.9 587.363 135.428C586.41 135.941 585.354 136.198 584.195 136.198ZM584.195 134.02C584.841 134.02 585.442 133.866 585.999 133.558C586.571 133.25 587.033 132.788 587.385 132.172C587.737 131.556 587.913 130.808 587.913 129.928C587.913 129.048 587.745 128.307 587.407 127.706C587.07 127.09 586.623 126.628 586.065 126.32C585.508 126.012 584.907 125.858 584.261 125.858C583.616 125.858 583.015 126.012 582.457 126.32C581.915 126.628 581.482 127.09 581.159 127.706C580.837 128.307 580.675 129.048 580.675 129.928C580.675 131.233 581.005 132.245 581.665 132.964C582.34 133.668 583.183 134.02 584.195 134.02ZM598.929 125.924H596.685V136H594.155V125.924H592.725V123.878H594.155V123.02C594.155 121.627 594.521 120.615 595.255 119.984C596.003 119.339 597.169 119.016 598.753 119.016V121.106C597.99 121.106 597.455 121.253 597.147 121.546C596.839 121.825 596.685 122.316 596.685 123.02V123.878H598.929V125.924ZM603.307 122.272C602.853 122.272 602.471 122.118 602.163 121.81C601.855 121.502 601.701 121.121 601.701 120.666C601.701 120.211 601.855 119.83 602.163 119.522C602.471 119.214 602.853 119.06 603.307 119.06C603.747 119.06 604.121 119.214 604.429 119.522C604.737 119.83 604.891 120.211 604.891 120.666C604.891 121.121 604.737 121.502 604.429 121.81C604.121 122.118 603.747 122.272 603.307 122.272ZM604.539 123.878V136H602.031V123.878H604.539ZM611.638 125.924V132.634C611.638 133.089 611.741 133.419 611.946 133.624C612.166 133.815 612.533 133.91 613.046 133.91H614.586V136H612.606C611.477 136 610.611 135.736 610.01 135.208C609.409 134.68 609.108 133.822 609.108 132.634V125.924H607.678V123.878H609.108V120.864H611.638V123.878H614.586V125.924H611.638Z" fill="white"/>
<path d="M89.05 169.75V160.39H107.77V226H97.42V169.75H89.05Z" fill="url(#paint3_linear_6_3)"/>
<path d="M328.07 212.05C333.83 207.07 338.36 202.99 341.66 199.81C345.02 196.57 347.81 193.21 350.03 189.73C352.25 186.25 353.36 182.77 353.36 179.29C353.36 175.69 352.49 172.87 350.75 170.83C349.07 168.79 346.4 167.77 342.74 167.77C339.2 167.77 336.44 168.91 334.46 171.19C332.54 173.41 331.52 176.41 331.4 180.19H321.5C321.68 173.35 323.72 168.13 327.62 164.53C331.58 160.87 336.59 159.04 342.65 159.04C349.19 159.04 354.29 160.84 357.95 164.44C361.67 168.04 363.53 172.84 363.53 178.84C363.53 183.16 362.42 187.33 360.2 191.35C358.04 195.31 355.43 198.88 352.37 202.06C349.37 205.18 345.53 208.81 340.85 212.95L336.8 216.55H365.33V225.1H321.59V217.63L328.07 212.05Z" fill="url(#paint4_linear_6_3)"/>
<path d="M568.22 176.59C568.58 171.01 570.71 166.66 574.61 163.54C578.57 160.42 583.61 158.86 589.73 158.86C593.93 158.86 597.56 159.61 600.62 161.11C603.68 162.61 605.99 164.65 607.55 167.23C609.11 169.81 609.89 172.72 609.89 175.96C609.89 179.68 608.9 182.86 606.92 185.5C604.94 188.14 602.57 189.91 599.81 190.81V191.17C603.35 192.25 606.11 194.23 608.09 197.11C610.07 199.93 611.06 203.56 611.06 208C611.06 211.54 610.25 214.69 608.63 217.45C607.01 220.21 604.61 222.4 601.43 224.02C598.25 225.58 594.44 226.36 590 226.36C583.52 226.36 578.18 224.71 573.98 221.41C569.84 218.05 567.62 213.25 567.32 207.01H577.22C577.46 210.19 578.69 212.8 580.91 214.84C583.13 216.82 586.13 217.81 589.91 217.81C593.57 217.81 596.39 216.82 598.37 214.84C600.35 212.8 601.34 210.19 601.34 207.01C601.34 202.81 599.99 199.84 597.29 198.1C594.65 196.3 590.57 195.4 585.05 195.4H582.71V186.94H585.14C590 186.88 593.69 186.07 596.21 184.51C598.79 182.95 600.08 180.49 600.08 177.13C600.08 174.25 599.15 171.97 597.29 170.29C595.43 168.55 592.79 167.68 589.37 167.68C586.01 167.68 583.4 168.55 581.54 170.29C579.68 171.97 578.57 174.07 578.21 176.59H568.22Z" fill="url(#paint5_linear_6_3)"/>
<defs>
<linearGradient id="paint0_linear_6_3" x1="242" y1="0" x2="457.466" y2="18.9594" gradientUnits="userSpaceOnUse">
<stop stop-color="#812DE2"/>
<stop offset="1" stop-color="#3A49F9"/>
</linearGradient>
<linearGradient id="paint1_linear_6_3" x1="484" y1="0" x2="699.466" y2="18.9594" gradientUnits="userSpaceOnUse">
<stop stop-color="#812DE2"/>
<stop offset="1" stop-color="#3A49F9"/>
</linearGradient>
<linearGradient id="paint2_linear_6_3" x1="0" y1="0" x2="215.466" y2="18.9594" gradientUnits="userSpaceOnUse">
<stop stop-color="#812DE2"/>
<stop offset="1" stop-color="#3A49F9"/>
</linearGradient>
<linearGradient id="paint3_linear_6_3" x1="115.97" y1="138.721" x2="80.8082" y2="144.983" gradientUnits="userSpaceOnUse">
<stop stop-color="#4945F8"/>
<stop offset="1" stop-color="#9030F4"/>
</linearGradient>
<linearGradient id="paint4_linear_6_3" x1="367.327" y1="138.721" x2="312.932" y2="154.462" gradientUnits="userSpaceOnUse">
<stop stop-color="#4945F8"/>
<stop offset="1" stop-color="#9030F4"/>
</linearGradient>
<linearGradient id="paint5_linear_6_3" x1="615.262" y1="138.721" x2="559.115" y2="155.594" gradientUnits="userSpaceOnUse">
<stop stop-color="#4945F8"/>
<stop offset="1" stop-color="#9030F4"/>
</linearGradient>
</defs>
</svg>
